# xmcd
#
# Track frame offsets: 
#        150
#        12960
#        26652
#        39343
#        52379
#        66031
#        79303
#        92664
#        106549
#        120103
#        132720
#        144249
#        157746
#        171333
#        182330
#        194118
#
# Disc length: 2751 seconds
#
# Revision: 1
# Processed by: cddbd v1.5.2PL0 Copyright (c) Steve Scherf et al.
# Submitted via: ExactAudioCopy v1.1
#
DISCID=cf0abd10
DTITLE=B.B. King - Singin' The Blues [CD1)
DYEAR=1956
DGENRE=Blues
TTITLE0=Please Love Me
TTITLE1=You Upset Me Baby
TTITLE2=Everyday I Have The Blues
TTITLE3=Bad Luck
TTITLE4=3 O'Clock Blues
TTITLE5=Blind Love
TTITLE6=Woke Up This Morning
TTITLE7=You Know I Love You
TTITLE8=Sweet Little Angel
TTITLE9=Ten Long Years
TTITLE10=Did You Ever Love A Woman
TTITLE11=Crying Won't Help You
TTITLE12=Boogie Rock (House Rocker) (bonus track)
TTITLE13=Let's Do The Boogie (bonus track)
TTITLE14=Dark Is Knight (part 1) (bonus track)
TTITLE15=Dark Is Knight (part 2) (bonus track)
EXTD=
EXTT0=
EXTT1=
EXTT2=
EXTT3=
EXTT4=
EXTT5=
EXTT6=
EXTT7=
EXTT8=
EXTT9=
EXTT10=
EXTT11=
EXTT12=
EXTT13=
EXTT14=
EXTT15=
PLAYORDER=
